<svg width="27" height="21" viewBox="0 0 27 21" fill="none" xmlns="http://www.w3.org/2000/svg">
<path d="M3.47656 2.66992L4.82031 5.98242C5.61198 5.71159 6.41406 5.47721 7.22656 5.2793C8.03906 5.08138 8.86198 4.9095 9.69531 4.76367L8.28906 2.66992L3.47656 2.66992ZM5.10156 7.85742L5.10156 13.7324C6.33073 14.1908 7.55469 14.5449 8.77344 14.7949C9.99219 15.0449 11.0599 15.1699 11.9766 15.1699C14.3724 15.1699 16.4766 14.8262 18.2891 14.1387C20.1016 13.4512 21.8203 12.3366 23.4453 10.7949C21.8203 9.25325 20.1016 8.13867 18.2891 7.45117C16.4766 6.76367 14.3724 6.41992 11.9766 6.41992C11.0599 6.41992 9.99219 6.54492 8.77344 6.79492C7.55469 7.04492 6.33073 7.39909 5.10156 7.85742ZM12.2891 10.7949C12.2891 10.1908 12.5026 9.67513 12.9297 9.24805C13.3568 8.82096 13.8724 8.60742 14.4766 8.60742C15.0807 8.60742 15.5964 8.82096 16.0234 9.24805C16.4505 9.67513 16.6641 10.1908 16.6641 10.7949C16.6641 11.3991 16.4505 11.9147 16.0234 12.3418C15.5964 12.7689 15.0807 12.9824 14.4766 12.9824C13.8724 12.9824 13.3568 12.7689 12.9297 12.3418C12.5026 11.9147 12.2891 11.3991 12.2891 10.7949ZM3.47656 18.9199L8.28906 18.9199L9.69531 16.8262C8.86198 16.6803 8.03906 16.5085 7.22656 16.3105C6.41406 16.1126 5.61198 15.8783 4.82031 15.6074L3.47656 18.9199ZM26.0078 10.7949C24.1328 12.9199 22.0547 14.4928 19.7734 15.5137C17.4922 16.5345 14.8932 17.0449 11.9766 17.0449L11.8203 17.0449L9.85156 19.9512C9.6849 20.222 9.46614 20.4303 9.19531 20.5762C8.92448 20.722 8.63281 20.7949 8.32031 20.7949L0.726562 20.7949L3.22656 14.5449L3.22656 7.04492L0.726562 0.794921L8.32031 0.794921C8.63281 0.794921 8.92448 0.867838 9.19531 1.01367C9.46614 1.1595 9.6849 1.36784 9.85156 1.63867L11.8203 4.54492L11.9766 4.54492C14.8932 4.54492 17.4922 5.05534 19.7734 6.07617C22.0547 7.09701 24.1328 8.66992 26.0078 10.7949Z" fill="white"/>
</svg>
